<svg width="66" height="70" viewBox="0 0 66 70" fill="none" xmlns="http://www.w3.org/2000/svg">
<rect x="21" y="19" width="44" height="13" rx="6.5" fill="#FEE7AD"/>
<rect x="21" y="31" width="44" height="13" rx="6.5" fill="#FEE7AD"/>
<rect x="21" y="43" width="44" height="13" rx="6.5" fill="#FEE7AD"/>
<rect x="2" y="26" width="44" height="13" rx="6.5" fill="#FEE7AD"/>
<rect x="2" y="39" width="44" height="13" rx="6.5" fill="#FEE7AD"/>
<rect x="2" y="51" width="44" height="13" rx="6.5" fill="#FEE7AD"/>
<rect x="21" y="56" width="44" height="13" rx="6.5" fill="#FEE7AD"/>
<ellipse cx="24.5" cy="25" rx="3.5" ry="6" fill="#D6B663"/>
<ellipse cx="24.5" cy="38" rx="3.5" ry="6" fill="#D6B663"/>
<ellipse cx="24.5" cy="51" rx="3.5" ry="6" fill="#D6B663"/>
<ellipse cx="24.5" cy="63" rx="3.5" ry="6" fill="#D6B663"/>
<rect x="27" y="19" width="36" height="3" fill="white"/>
<rect x="4" y="27" width="17" height="3" fill="white"/>
<rect x="4" y="40" width="17" height="3" fill="white"/>
<rect x="4" y="52" width="18" height="3" fill="white"/>
<rect x="27" y="32" width="36" height="3" fill="white"/>
<rect x="27" y="44" width="36" height="3" fill="white"/>
<rect x="27" y="56" width="36" height="3" fill="white"/>
<mask id="path-19-inside-1" fill="white">
<path fill-rule="evenodd" clip-rule="evenodd" d="M16.707 8H18C20.7614 8 23 10.2386 23 13V15H11.4123C11.4062 15 11.4001 15 11.3941 15C11.388 15 11.3819 15 11.3758 15H0V13C0 10.2386 2.23858 8 5 8H6.0811C6.72945 5.67529 8.86257 3.96973 11.3941 3.96973C13.9255 3.96973 16.0587 5.67529 16.707 8Z"/>
</mask>
<path d="M16.707 8L14.7805 8.53728L15.1885 10H16.707V8ZM23 15V17H25V15H23ZM11.4123 15V13L11.4057 13L11.4123 15ZM11.3758 15L11.3824 13H11.3758V15ZM0 15H-2V17H0V15ZM6.0811 8V10H7.59964L8.00758 8.53728L6.0811 8ZM16.707 10H18V6H16.707V10ZM18 10C19.6569 10 21 11.3431 21 13H25C25 9.13401 21.866 6 18 6V10ZM21 13V15H25V13H21ZM23 13H11.4123V17H23V13ZM11.4057 13C11.4019 13 11.3981 13 11.3941 13V17C11.4022 17 11.4105 17 11.4189 17L11.4057 13ZM11.3941 13C11.3901 13 11.3862 13 11.3824 13L11.3692 17C11.3776 17 11.3859 17 11.3941 17V13ZM11.3758 13H0V17H11.3758V13ZM2 15V13H-2V15H2ZM2 13C2 11.3431 3.34315 10 5 10V6C1.13401 6 -2 9.13401 -2 13H2ZM5 10H6.0811V6H5V10ZM8.00758 8.53728C8.42108 7.05464 9.78345 5.96973 11.3941 5.96973V1.96973C7.9417 1.96973 5.03781 4.29594 4.15462 7.46272L8.00758 8.53728ZM11.3941 5.96973C13.0047 5.96973 14.367 7.05464 14.7805 8.53728L18.6335 7.46272C17.7503 4.29594 14.8464 1.96973 11.3941 1.96973V5.96973Z" fill="#18BA3C" mask="url(#path-19-inside-1)"/>
<mask id="path-21-inside-2" fill="white">
<path fill-rule="evenodd" clip-rule="evenodd" d="M37.9974 2.90906H39C41.2091 2.90906 43 4.69992 43 6.90906V8.90906H33.8357C33.8299 8.90908 33.8241 8.90909 33.8183 8.90909C33.8125 8.90909 33.8067 8.90908 33.8008 8.90906H25V6.90906C25 4.69992 26.7909 2.90906 29 2.90906H29.6391C30.2674 1.21067 31.9015 0 33.8183 0C35.7351 0 37.3691 1.21067 37.9974 2.90906Z"/>
</mask>
<path d="M37.9974 2.90906L36.1217 3.60298L36.6048 4.90906H37.9974V2.90906ZM43 8.90906V10.9091H45V8.90906H43ZM33.8357 8.90906V6.90904L33.8282 6.90907L33.8357 8.90906ZM33.8008 8.90906L33.8084 6.90906H33.8008V8.90906ZM25 8.90906H23V10.9091H25V8.90906ZM29.6391 2.90906V4.90906H31.0317L31.5149 3.60298L29.6391 2.90906ZM37.9974 4.90906H39V0.909058H37.9974V4.90906ZM39 4.90906C40.1046 4.90906 41 5.80449 41 6.90906H45C45 3.59535 42.3137 0.909058 39 0.909058V4.90906ZM41 6.90906V8.90906H45V6.90906H41ZM43 6.90906H33.8357V10.9091H43V6.90906ZM33.8282 6.90907C33.8248 6.90908 33.8215 6.90909 33.8183 6.90909V10.9091C33.8267 10.9091 33.835 10.9091 33.8433 10.909L33.8282 6.90907ZM33.8183 6.90909C33.8151 6.90909 33.8118 6.90908 33.8084 6.90907L33.7933 10.909C33.8015 10.9091 33.8098 10.9091 33.8183 10.9091V6.90909ZM33.8008 6.90906H25V10.9091H33.8008V6.90906ZM27 8.90906V6.90906H23V8.90906H27ZM27 6.90906C27 5.80449 27.8954 4.90906 29 4.90906V0.909058C25.6863 0.909058 23 3.59535 23 6.90906H27ZM29 4.90906H29.6391V0.909058H29V4.90906ZM31.5149 3.60298C31.8622 2.6641 32.7652 2 33.8183 2V-2C31.0377 -2 28.6727 -0.242754 27.7634 2.21513L31.5149 3.60298ZM33.8183 2C34.8713 2 35.7743 2.6641 36.1217 3.60298L39.8732 2.21513C38.9639 -0.242755 36.5988 -2 33.8183 -2V2Z" fill="#18BA3C" mask="url(#path-21-inside-2)"/>
<path d="M42.5602 32H24.9289V31.9691C24.7969 31.9896 24.6633 32 24.5282 32C22.0938 32 21 28.7347 21 25.3185C21 22.2655 22.0938 19 24.5282 19C24.6633 19 24.7969 19.0104 24.9289 19.0309V19L42.5602 19.0151M54.4397 31.9691H60.9929C63.2395 31.6212 65 29.2698 65 25.3185C65 21.3671 63.2395 19.3788 60.9929 19.0309H42.1198" stroke="#222222" stroke-width="2"/>
<path d="M20.55 26L7.09813 26C4.80051 26.3496 3 28.7122 3 32.6824C3 36.6526 4.80051 38.6504 7.09813 39L21 39" stroke="#222222" stroke-width="2"/>
<path d="M20.55 39L7.09813 39C4.80051 39.3227 3 41.5036 3 45.1684C3 48.8332 4.80051 50.6773 7.09813 51L21 51" stroke="#222222" stroke-width="2"/>
<path d="M20.55 51L7.09813 51C4.80051 51.3227 3 53.5036 3 57.1684C3 60.8332 4.80051 62.6773 7.09813 63L21 63" stroke="#222222" stroke-width="2"/>
<path d="M28 25C28 26.7703 27.5368 28.3263 26.8408 29.409C26.1379 30.5024 25.287 31 24.5 31C23.713 31 22.8621 30.5024 22.1592 29.409C21.4632 28.3263 21 26.7703 21 25C21 23.2297 21.4632 21.6737 22.1592 20.591C22.8621 19.4976 23.713 19 24.5 19C25.287 19 26.1379 19.4976 26.8408 20.591C27.5368 21.6737 28 23.2297 28 25Z" stroke="#222222" stroke-width="2"/>
<path d="M42.5602 44H24.9289V43.9715C24.7969 43.9904 24.6633 44 24.5282 44C22.0938 44 21 40.9858 21 37.8324C21 35.0143 22.0938 32 24.5282 32C24.6633 32 24.7969 32.0096 24.9289 32.0285V32L42.5602 32.0139M54.4397 43.9715H60.9929C63.2395 43.6503 65 41.4798 65 37.8324C65 34.185 63.2395 32.3497 60.9929 32.0285L54.4397 32.0233" stroke="#222222" stroke-width="2"/>
<path d="M28 38C28 39.7703 27.5368 41.3263 26.8408 42.409C26.1379 43.5024 25.287 44 24.5 44C23.713 44 22.8621 43.5024 22.1592 42.409C21.4632 41.3263 21 39.7703 21 38C21 36.2297 21.4632 34.6737 22.1592 33.591C22.8621 32.4976 23.713 32 24.5 32C25.287 32 26.1379 32.4976 26.8408 33.591C27.5368 34.6737 28 36.2297 28 38Z" stroke="#222222" stroke-width="2"/>
<path d="M42.5602 56H24.9289V55.9715C24.7969 55.9904 24.6633 56 24.5282 56C22.0938 56 21 52.9858 21 49.8324C21 47.0143 22.0938 44 24.5282 44C24.6633 44 24.7969 44.0096 24.9289 44.0285V44L42.5602 44.0139M54.4397 55.9715H60.9929C63.2395 55.6503 65 53.4798 65 49.8324C65 46.185 63.2395 44.3497 60.9929 44.0285L54.4397 44.0233" stroke="#222222" stroke-width="2"/>
<path d="M28 50C28 51.7703 27.5368 53.3263 26.8408 54.409C26.1379 55.5024 25.287 56 24.5 56C23.713 56 22.8621 55.5024 22.1592 54.409C21.4632 53.3263 21 51.7703 21 50C21 48.2297 21.4632 46.6737 22.1592 45.591C22.8621 44.4976 23.713 44 24.5 44C25.287 44 26.1379 44.4976 26.8408 45.591C27.5368 46.6737 28 48.2297 28 50Z" stroke="#222222" stroke-width="2"/>
<path d="M42.5602 69H24.9289V68.9691C24.7969 68.9896 24.6633 69 24.5282 69C22.0938 69 21 65.7347 21 62.3185C21 59.2655 22.0938 56 24.5282 56C24.6633 56 24.7969 56.0104 24.9289 56.0309V56L42.5602 56.0151M42.5602 68.9691H60.9929C63.2395 68.6212 65 66.2698 65 62.3185C65 58.3671 63.2395 56.3788 60.9929 56.0309L54.4397 56.0253" stroke="#222222" stroke-width="2"/>
<ellipse cx="50.5" cy="31.5" rx="3.5" ry="5.5" fill="#D6B663"/>
<ellipse cx="50.5" cy="44.5" rx="3.5" ry="5.5" fill="#D6B663"/>
<ellipse cx="50.5" cy="55.5" rx="3.5" ry="5.5" fill="#D6B663"/>
<path d="M28 63C28 64.7703 27.5368 66.3263 26.8408 67.409C26.1379 68.5024 25.287 69 24.5 69C23.713 69 22.8621 68.5024 22.1592 67.409C21.4632 66.3263 21 64.7703 21 63C21 61.2297 21.4632 59.6737 22.1592 58.591C22.8621 57.4976 23.713 57 24.5 57C25.287 57 26.1379 57.4976 26.8408 58.591C27.5368 59.6737 28 61.2297 28 63Z" stroke="#222222" stroke-width="2"/>
<path d="M54 32C54 33.7703 53.5368 35.3263 52.8408 36.409C52.1379 37.5024 51.287 38 50.5 38C49.713 38 48.8621 37.5024 48.1592 36.409C47.4632 35.3263 47 33.7703 47 32C47 30.2297 47.4632 28.6737 48.1592 27.591C48.8621 26.4976 49.713 26 50.5 26C51.287 26 52.1379 26.4976 52.8408 27.591C53.5368 28.6737 54 30.2297 54 32Z" stroke="#222222" stroke-width="2"/>
<path d="M51 26C49.5333 26.2857 44.7778 26.8571 43 32C44.7778 37.5714 49 37.1429 50.6 38" stroke="#222222" stroke-width="2"/>
<path d="M54 44C54 45.7703 53.5368 47.3263 52.8408 48.409C52.1379 49.5024 51.287 50 50.5 50C49.713 50 48.8621 49.5024 48.1592 48.409C47.4632 47.3263 47 45.7703 47 44C47 42.2297 47.4632 40.6737 48.1592 39.591C48.8621 38.4976 49.713 38 50.5 38C51.287 38 52.1379 38.4976 52.8408 39.591C53.5368 40.6737 54 42.2297 54 44Z" stroke="#222222" stroke-width="2"/>
<path d="M51 38C49.5333 38.2857 44.7778 38.8571 43 44C44.7778 49.5714 49 49.1429 50.6 50" stroke="#222222" stroke-width="2"/>
<path d="M54 56C54 57.7703 53.5368 59.3263 52.8408 60.409C52.1379 61.5024 51.287 62 50.5 62C49.713 62 48.8621 61.5024 48.1592 60.409C47.4632 59.3263 47 57.7703 47 56C47 54.2297 47.4632 52.6737 48.1592 51.591C48.8621 50.4976 49.713 50 50.5 50C51.287 50 52.1379 50.4976 52.8408 51.591C53.5368 52.6737 54 54.2297 54 56Z" stroke="#222222" stroke-width="2"/>
<path d="M51 50C49.5333 50.2857 44.7778 50.8571 43 56C44.7778 61.5714 49 61.1429 50.6 62" stroke="#222222" stroke-width="2"/>
</svg>
