<svg width="67" height="67" viewBox="0 0 67 67" fill="none" xmlns="http://www.w3.org/2000/svg">
<circle cx="33.1553" cy="12.8839" r="11.8839" fill="#FEE7AD" stroke="#222222" stroke-width="2"/>
<circle cx="33.1565" cy="12.8839" r="2.22096" fill="white" stroke="#222222" stroke-width="2"/>
<mask id="path-3-inside-1" fill="white">
<path fill-rule="evenodd" clip-rule="evenodd" d="M1.94531 29.7939C1.39303 29.7939 0.945312 30.2417 0.945312 30.7939V41.6778C0.945312 42.2301 1.39303 42.6778 1.94531 42.6778H23.2392L46.3586 65.7972C46.7491 66.1878 47.3823 66.1878 47.7728 65.7972L55.4689 58.1012C55.8594 57.7107 55.8594 57.0775 55.4689 56.687L41.4597 42.6778H65.1698C65.7221 42.6778 66.1698 42.2301 66.1698 41.6778V30.7939C66.1698 30.2417 65.7221 29.7939 65.1698 29.7939H1.94531Z"/>
</mask>
<path fill-rule="evenodd" clip-rule="evenodd" d="M1.94531 29.7939C1.39303 29.7939 0.945312 30.2417 0.945312 30.7939V41.6778C0.945312 42.2301 1.39303 42.6778 1.94531 42.6778H23.2392L46.3586 65.7972C46.7491 66.1878 47.3823 66.1878 47.7728 65.7972L55.4689 58.1012C55.8594 57.7107 55.8594 57.0775 55.4689 56.687L41.4597 42.6778H65.1698C65.7221 42.6778 66.1698 42.2301 66.1698 41.6778V30.7939C66.1698 30.2417 65.7221 29.7939 65.1698 29.7939H1.94531Z" fill="#FEE7AD"/>
<path d="M23.2392 42.6778L24.6534 41.2636C24.2783 40.8885 23.7696 40.6778 23.2392 40.6778V42.6778ZM46.3586 65.7972L44.9444 67.2114L46.3586 65.7972ZM47.7728 65.7972L49.187 67.2115L49.1871 67.2114L47.7728 65.7972ZM55.4689 58.1012L54.0547 56.687L55.4689 58.1012ZM55.4689 56.687L54.0547 58.1012L55.4689 56.687ZM41.4597 42.6778V40.6778C40.6508 40.6778 39.9215 41.1651 39.612 41.9124C39.3024 42.6598 39.4735 43.52 40.0455 44.092L41.4597 42.6778ZM2.94531 30.7939C2.94531 31.3462 2.4976 31.7939 1.94531 31.7939V27.7939C0.288457 27.7939 -1.05469 29.1371 -1.05469 30.7939H2.94531ZM2.94531 41.6778V30.7939H-1.05469V41.6778H2.94531ZM1.94531 40.6778C2.49759 40.6778 2.94531 41.1255 2.94531 41.6778H-1.05469C-1.05469 43.3347 0.288465 44.6778 1.94531 44.6778V40.6778ZM23.2392 40.6778H1.94531V44.6778H23.2392V40.6778ZM47.7728 64.383L24.6534 41.2636L21.825 44.092L44.9444 67.2114L47.7728 64.383ZM46.3586 64.383C46.7491 63.9925 47.3823 63.9925 47.7728 64.383L44.9444 67.2114C46.116 68.383 48.0155 68.383 49.187 67.2115L46.3586 64.383ZM54.0547 56.687L46.3586 64.383L49.1871 67.2114L56.8831 59.5154L54.0547 56.687ZM54.0547 58.1012C53.6641 57.7107 53.6641 57.0775 54.0547 56.687L56.8831 59.5154C58.0547 58.3438 58.0547 56.4443 56.8831 55.2728L54.0547 58.1012ZM40.0455 44.092L54.0547 58.1012L56.8831 55.2728L42.8739 41.2636L40.0455 44.092ZM65.1698 40.6778H41.4597V44.6778H65.1698V40.6778ZM64.1698 41.6778C64.1698 41.1255 64.6175 40.6778 65.1698 40.6778V44.6778C66.8267 44.6778 68.1698 43.3347 68.1698 41.6778H64.1698ZM64.1698 30.7939V41.6778H68.1698V30.7939H64.1698ZM65.1698 31.7939C64.6175 31.7939 64.1698 31.3462 64.1698 30.7939H68.1698C68.1698 29.1371 66.8267 27.7939 65.1698 27.7939V31.7939ZM1.94531 31.7939H65.1698V27.7939H1.94531V31.7939Z" fill="#222222" mask="url(#path-3-inside-1)"/>
<rect x="3" y="31" width="61" height="2" fill="white"/>
<rect x="40.041" y="43.5931" width="19.555" height="1.61048" transform="rotate(45 40.041 43.5931)" fill="white"/>
<rect x="9.99805" y="26.7677" width="6.85765" height="18.9363" rx="1" fill="#18BA3C" stroke="#222222" stroke-width="2"/>
<rect x="50.2598" y="26.7677" width="6.85765" height="18.9363" rx="1" fill="#18BA3C" stroke="#222222" stroke-width="2"/>
<path d="M33.1543 0.805176V3.62352" stroke="#222222" stroke-width="2"/>
<path d="M33.1543 5.23401V10.0655" stroke="#222222" stroke-width="2"/>
<path d="M33.1543 22.5468V25.3651" stroke="#222222" stroke-width="2"/>
<path d="M45.4355 13.0851L42.6172 13.0851" stroke="#222222" stroke-width="2"/>
<path d="M23.6934 13.0851L20.875 13.0851" stroke="#222222" stroke-width="2"/>
<path d="M39.1934 23.3519L42.4143 30.5991" stroke="#222222" stroke-width="2"/>
<path d="M27.5176 23.3519L24.2966 30.5991" stroke="#222222" stroke-width="2"/>
<path d="M0.945312 61.5541L2.50647 59.9929C4.60039 57.899 7.9953 57.899 10.0892 59.9929V59.9929C12.1831 62.0868 15.5781 62.0868 17.672 59.9929V59.9929C19.7659 57.899 23.1608 57.899 25.2547 59.9929L26.8159 61.5541" stroke="#18BA3C"/>
<path d="M0.945312 57.9857L2.50647 56.4246C4.60039 54.3306 7.9953 54.3306 10.0892 56.4246V56.4246C12.1831 58.5185 15.5781 58.5185 17.672 56.4246V56.4246C19.7659 54.3306 23.1608 54.3306 25.2547 56.4246L26.8159 57.9857" stroke="#18BA3C"/>
<path d="M0.945312 54.4174L2.50647 52.8562C4.60039 50.7623 7.9953 50.7623 10.0892 52.8562V52.8562C12.1831 54.9501 15.5781 54.9501 17.672 52.8562V52.8562C19.7659 50.7623 23.1608 50.7623 25.2547 52.8562L26.8159 54.4174" stroke="#18BA3C"/>
</svg>
